<svg width="34" height="31" viewBox="0 0 34 31" fill="none" xmlns="http://www.w3.org/2000/svg">
<path d="M18.3875 28.7096C18.2055 28.9032 18.0843 29.1457 18.0388 29.4072C17.9934 29.6687 18.0256 29.9377 18.1316 30.1812C18.2375 30.4246 18.4126 30.6318 18.6352 30.7773C18.8578 30.9228 19.1183 31.0001 19.3844 30.9998C19.5758 31.0036 19.7658 30.9667 19.9417 30.8915C20.1176 30.8164 20.2754 30.7047 20.4047 30.5639L33.6385 16.427C33.6848 16.3646 33.7258 16.2985 33.761 16.2293C33.8151 16.1607 33.8619 16.0867 33.9009 16.0085C34.0347 15.6825 34.0347 15.3172 33.9009 14.9912C33.8619 14.913 33.8151 14.839 33.761 14.7703C33.7258 14.7011 33.6848 14.635 33.6385 14.5727L20.4047 0.429987C20.2822 0.299453 20.1351 0.194254 19.9718 0.120396C19.8085 0.046538 19.6323 0.00546793 19.4531 -0.000469589C19.2739 -0.00640711 19.0953 0.0229043 18.9275 0.0857909C18.7596 0.148678 18.6059 0.243908 18.475 0.366045C18.2106 0.612712 18.0553 0.954 18.0432 1.31483C18.0373 1.4935 18.0667 1.67158 18.1298 1.83892C18.1928 2.00626 18.2883 2.15957 18.4108 2.2901L29.4993 14.1367H1.3642C1.00239 14.1367 0.655401 14.28 0.399564 14.5351C0.143728 14.7902 0 15.1362 0 15.4969C0 15.8577 0.143728 16.2037 0.399564 16.4587C0.655401 16.7138 1.00239 16.8571 1.3642 16.8571H29.4993L18.3875 28.7096Z" fill="#424C57"/>
</svg>
