<?xml version="1.0" encoding="UTF-8"?><svg id="a" xmlns="http://www.w3.org/2000/svg" viewBox="0 0 50.99 45.35"><path d="M25.5,45.35c-10.95,0-19.86-8.91-19.86-19.86S14.55,5.64,25.5,5.64s19.86,8.91,19.86,19.86-8.91,19.86-19.86,19.86Zm0-38.21C15.38,7.14,7.14,15.38,7.14,25.5s8.23,18.36,18.36,18.36,18.36-8.23,18.36-18.36S35.62,7.14,25.5,7.14Z" fill="#424c57"/><path d="M25.5,26.15c-.41,0-.75-.34-.75-.75V6.61c0-.41,.34-.75,.75-.75s.75,.34,.75,.75V25.4c0,.41-.34,.75-.75,.75Z" fill="#424c57"/><path d="M1.5,25.5H0C0,11.44,11.44,0,25.5,0V1.5C12.27,1.5,1.5,12.27,1.5,25.5Z" fill="#424c57"/><path d="M50.99,26.15h-1.5v-.75c0-.61-.02-1.21-.07-1.81l-.06-.75,1.5-.11,.06,.75c.05,.63,.07,1.28,.07,1.92v.75Zm-2.05-5.92l-.19-.73c-.15-.58-.32-1.17-.51-1.74l-.24-.71,1.42-.48,.24,.71c.21,.61,.39,1.23,.55,1.85l.18,.73-1.45,.37Zm-2-5.59l-.36-.66c-.29-.53-.6-1.05-.93-1.56l-.41-.63,1.26-.82,.41,.63c.35,.54,.68,1.1,.99,1.66l.36,.66-1.32,.72Zm-3.32-4.93l-.51-.55c-.41-.44-.84-.88-1.28-1.28l-.55-.51,1.02-1.1,.55,.51c.47,.43,.92,.89,1.36,1.36l.51,.55-1.1,1.02Zm-4.43-3.97l-.63-.41c-.51-.33-1.03-.64-1.56-.93l-.66-.36,.72-1.32,.66,.36c.56,.31,1.11,.64,1.65,.99l.63,.41-.82,1.26Zm-5.26-2.76l-.71-.24c-.57-.19-1.15-.37-1.74-.51l-.73-.19,.37-1.45,.73,.19c.62,.16,1.24,.34,1.85,.55l.71,.24-.48,1.42Zm-5.78-1.37l-.75-.06c-.6-.05-1.21-.07-1.81-.07h-.75V0h.75c.64,0,1.29,.02,1.93,.07l.75,.06-.11,1.5Z" fill="#424c57"/></svg>