<?xml version="1.0" encoding="UTF-8"?><svg id="a" xmlns="http://www.w3.org/2000/svg" viewBox="0 0 33.93 45.35"><path d="M33.72,12.12L21.7,.09,3.26,0C1.47,0,0,1.47,0,3.27V42.09c0,1.8,1.47,3.26,3.27,3.26H30.67c1.8,0,3.26-1.47,3.26-3.27V12.62l-.21-.5Zm-2.81-.69h-8.42V3.01s8.42,8.42,8.42,8.42Zm-.25,32.42H3.27c-.97,0-1.77-.79-1.77-1.77V3.27c0-.97,.79-1.77,1.76-1.77l17.46,.09V13.2h11.7v28.88c0,.97-.79,1.77-1.77,1.77Z" fill="#424c57"/><path d="M23.19,27.92c-.29-.29-.77-.29-1.06,0l-4.45,4.45v-15.95c0-.41-.34-.75-.75-.75s-.75,.34-.75,.75v16.12l-4.45-4.45c-.29-.29-.77-.29-1.06,0s-.29,.77,0,1.06l6.18,6.18,6.34-6.35c.29-.29,.29-.77,0-1.06Z" fill="#424c57"/></svg>