<?xml version="1.0" encoding="UTF-8"?><svg id="a" xmlns="http://www.w3.org/2000/svg" viewBox="0 0 53.27 45.57"><path d="M5.23,45.57c-.91,0-1.81-.24-2.61-.71C.82,43.81-.18,41.85,.03,39.76,1.13,28.2,5.13,17.58,10.99,10.64c1.36-1.61,3.46-2.23,5.48-1.61,2.27,.7,3.73,2.68,3.73,5.05v21.23c0,1.99-1.09,3.79-2.85,4.69l-9.73,4.99c-.74,.38-1.56,.58-2.38,.58ZM14.92,10.29c-1.06,0-2.07,.46-2.79,1.31C6.47,18.32,2.6,28.63,1.52,39.9c-.14,1.51,.57,2.91,1.86,3.67,1.07,.62,2.44,.66,3.55,.09l9.73-4.99c1.26-.65,2.04-1.93,2.04-3.36V14.08c0-1.7-1.05-3.12-2.67-3.62-.37-.11-.74-.17-1.1-.17Z" fill="#424c57"/><path d="M48.04,45.57c-.82,0-1.64-.2-2.38-.58l-9.72-4.99c-1.76-.9-2.86-2.7-2.86-4.69V14.08c0-2.37,1.46-4.36,3.73-5.05,2.01-.62,4.11,0,5.48,1.61,5.86,6.95,9.86,17.56,10.96,29.12,.2,2.09-.79,4.05-2.6,5.1-.79,.46-1.69,.71-2.61,.71ZM38.35,10.29c-.37,0-.74,.05-1.1,.17-1.62,.5-2.67,1.92-2.67,3.62v21.23c0,1.43,.78,2.71,2.04,3.36l9.72,4.99c1.12,.57,2.48,.54,3.55-.09,1.29-.76,2.01-2.16,1.86-3.67-1.08-11.26-4.95-21.58-10.62-28.3-.72-.85-1.73-1.31-2.79-1.31Z" fill="#424c57"/><path d="M19.99,22.33c-.21,0-.42-.09-.57-.26-.27-.31-.23-.79,.08-1.06l1.41-1.21c1.71-1.47,2.68-3.6,2.68-5.84V.75c0-.41,.34-.75,.75-.75s.75,.34,.75,.75V13.96c0,2.68-1.17,5.23-3.21,6.98l-1.41,1.21c-.14,.12-.32,.18-.49,.18Z" fill="#424c57"/><path d="M33.39,22.37c-.22,0-.43-.08-.6-.22l-1.41-1.22c-2.04-1.75-3.21-4.3-3.21-6.98V.75C28.18,.34,28.51,0,28.93,0s.75,.34,.75,.75V13.96c0,2.25,.98,4.38,2.68,5.84l1.31,1.12c.28,.11,.47,.38,.47,.7,0,.41-.34,.75-.75,.75Zm0-1.5h0Z" fill="#424c57"/><path d="M33.03,27.28l-4.15-3.1c-1.34-1-3.15-1-4.49,0l-4.15,3.1-.9-1.2,4.15-3.1c1.88-1.4,4.4-1.4,6.29,0l4.15,3.1-.9,1.2Z" fill="#424c57"/></svg>