<?xml version="1.0" encoding="UTF-8"?><svg id="a" xmlns="http://www.w3.org/2000/svg" viewBox="0 0 44.18 45.35"><path d="M19.06,9.89c-.19,0-.38-.07-.52-.21l-3.04-2.98c-1.25-1.24-4.3-1.24-5.54,0l-3.04,2.98c-.29,.29-.77,.29-1.06-.01-.29-.3-.28-.77,.01-1.06l3.04-2.98c1.82-1.81,5.83-1.81,7.65,0l3.03,2.97c.3,.29,.3,.76,.01,1.06-.15,.15-.34,.23-.54,.23Z" fill="#424c57"/><path d="M12.77,31.4C5.45,30.97,0,25.49,0,18.64V10.34C0,10.04,.09,9.74,.27,9.49,1.13,8.24,5.57,1.94,8.38,.69,10.45-.23,15-.23,17.08,.69c2.79,1.24,7.25,7.55,8.11,8.8,.17,.25,.27,.55,.27,.85v8.3c0,6.84-5.45,12.33-12.68,12.76Zm-.04-29.9c-1.45,0-2.9,.19-3.74,.56C6.96,2.96,3.2,7.87,1.5,10.34v8.3c0,6.14,4.73,10.87,11.27,11.26,6.45-.39,11.19-5.12,11.18-11.26V10.34c-1.83-2.65-5.47-7.39-7.49-8.28-.84-.37-2.29-.56-3.74-.56Z" fill="#424c57"/><path d="M14.97,20.95h-4.48c-.41,0-.75-.34-.75-.75v-4.48c0-.41,.34-.75,.75-.75h4.48c.41,0,.75,.34,.75,.75v4.48c0,.41-.34,.75-.75,.75Zm-3.73-1.5h2.98v-2.98h-2.98v2.98Z" fill="#424c57"/><path d="M23.28,45.35c-5.82,0-10.56-5.04-10.56-11.23v-2.8c0-.41,.34-.75,.75-.75s.75,.34,.75,.75v2.8c0,5.37,4.06,9.73,9.06,9.73s9.06-4.37,9.06-9.73v-14.23c0-3.41,2.55-5.99,5.92-5.99s5.92,2.57,5.92,5.99v17.22c0,.41-.34,.75-.75,.75s-.75-.34-.75-.75V19.89c0-2.56-1.9-4.49-4.42-4.49s-4.42,1.93-4.42,4.49v14.23c0,6.19-4.74,11.23-10.56,11.23Z" fill="#424c57"/><path d="M5.58,17.68c-.41,0-.75-.34-.75-.75v-3.42c0-.41,.34-.75,.75-.75s.75,.34,.75,.75v3.42c0,.41-.34,.75-.75,.75Z" fill="#424c57"/><path d="M19.2,17.68c-.41,0-.75-.34-.75-.75v-3.42c0-.41,.34-.75,.75-.75s.75,.34,.75,.75v3.42c0,.41-.34,.75-.75,.75Z" fill="#424c57"/></svg>