<svg xmlns="http://www.w3.org/2000/svg" viewBox="0 0 215.36 172.09"><path fill="#231f20" d="M215.36 124.84c0-21.89-12.44-37.79-32.83-43.76l24.37-47.76c1.99-4.47 3.49-9.44 3.49-13.42C210.39 7.95 201.43 0 188 0c-11.94 0-18.39 5.97-26.35 22.38l-32.34 69.14c-5.97 11.94-8.45 23.38-8.45 33.82 0 26.35 20.88 46.75 47.25 46.75s47.25-19.88 47.25-47.25m-120.87 0c0-21.89-12.44-37.79-32.83-43.76l24.39-47.76c1.98-4.47 3.48-9.44 3.48-13.42C89.53 7.95 80.58 0 67.14 0 55.22 0 48.75 5.97 40.79 22.38L8.46 91.52C2.49 103.46 0 114.9 0 125.34c0 26.35 20.9 46.75 47.25 46.75s47.25-19.88 47.25-47.25"/></svg>
