<svg width="199" height="38" viewBox="0 0 199 38" fill="none" xmlns="http://www.w3.org/2000/svg">
<path d="M78.92 37.49C70.35 37.49 59.53 31.34 48.27 24.95C33.27 16.45 16.34 6.81999 5.85997 12.33C4.92409 12.7941 3.84379 12.8736 2.85004 12.5516C1.85628 12.2296 1.02792 11.5316 0.54204 10.6069C0.0561576 9.68213 -0.0486888 8.604 0.249915 7.60297C0.548518 6.60193 1.22688 5.75743 2.13997 5.25C16.49 -2.29 35.48 8.48999 52.22 18C65.11 25.32 78.44 32.88 83.06 27.79C84.47 26.23 79.64 18.79 77.82 15.92C74.17 10.25 71.28 5.77 74.35 2.11C77.42 -1.55 83.35 -0.600005 100.62 6.59C103.03 7.28 106.26 8.91999 110.62 11.15C129 20.42 163 37.68 192 14.87C192.836 14.2514 193.88 13.9826 194.91 14.1206C195.941 14.2586 196.877 14.7925 197.521 15.6091C198.165 16.4257 198.465 17.4609 198.358 18.4953C198.252 19.5296 197.747 20.4818 196.95 21.15C163.95 47.15 125.53 27.64 107.05 18.28C103.22 16.35 99.92 14.67 98.31 14.28L97.79 14.1C92.8618 11.9272 87.7979 10.0767 82.63 8.56C83.26 9.56 83.97 10.69 84.54 11.56C88.99 18.46 94.54 27.04 88.99 33.15C87.729 34.5633 86.1744 35.684 84.435 36.4337C82.6955 37.1834 80.8133 37.5439 78.92 37.49Z" fill="currentColor"/>
</svg>
