<svg width="338" height="39" viewBox="0 0 338 39" fill="none" xmlns="http://www.w3.org/2000/svg">
<path d="M64.5099 38C43.8799 38 22.4499 34.78 2.33992 25.6C1.37453 25.1597 0.623574 24.354 0.252252 23.3601C-0.11907 22.3661 -0.0803409 21.2654 0.359918 20.3C0.800178 19.3346 1.6059 18.5837 2.59985 18.2123C3.59379 17.841 4.69453 17.8797 5.65992 18.32C57.8299 42.12 120.66 23.68 150.89 14.82C158.45 12.6 164 11 167.72 10.39C189.81 5.06 204.77 4 213 7.24C227.63 1.11 249.81 0 263.45 0H263.82C289 0 316.66 3.49 334.44 8.9C334.955 9.0416 335.437 9.28509 335.857 9.61607C336.277 9.94705 336.626 10.3588 336.884 10.827C337.142 11.2953 337.303 11.8104 337.359 12.3421C337.414 12.8738 337.363 13.4112 337.207 13.9226C337.051 14.4339 336.794 14.9089 336.452 15.3194C336.11 15.7299 335.688 16.0676 335.213 16.3125C334.738 16.5574 334.219 16.7047 333.686 16.7455C333.153 16.7862 332.617 16.7198 332.11 16.55C303.06 7.71 246.23 4.42 219.73 13.19C221.16 16.51 220.61 20.51 218.11 24.47C214.93 29.52 208.68 34.22 203.74 33.34C202.431 33.1054 201.226 32.4724 200.29 31.5274C199.354 30.5824 198.732 29.3715 198.51 28.06C197.915 25.4325 198.028 22.6942 198.836 20.1242C199.644 17.5542 201.118 15.2444 203.11 13.43C196.91 13.16 186.56 14.07 169.43 18.2L169.1 18.27C165.86 18.76 160.25 20.41 153.1 22.5C133.42 28.28 100.17 38 64.5099 38ZM212.39 16.4C211.178 17.0924 210.041 17.9102 209 18.84C208.065 19.5803 207.318 20.5297 206.818 21.6119C206.317 22.694 206.078 23.8786 206.12 25.07C208.655 23.696 210.707 21.5773 212 19C212.453 18.2135 212.592 17.2848 212.39 16.4Z" fill="currentColor"/>
</svg>
