<?xml version="1.0" encoding="UTF-8"?><svg id="a" xmlns="http://www.w3.org/2000/svg" viewBox="0 0 41.54 45.35"><path d="M20.78,45.35c-.17,0-.35-.03-.51-.09C6.31,40.17-.5,27.42,.03,7.36c0-.4,.18-.79,.48-1.06,.29-.27,.7-.43,1.1-.4,6.92,.36,12.87-1.46,18.18-5.59,.5-.39,1.19-.42,1.72-.08h0c7,4.43,13.16,6.45,18.31,5.97,.41-.04,.82,.1,1.12,.36,.31,.26,.49,.65,.51,1.06,.95,19.3-6.01,32.31-20.15,37.63-.17,.06-.35,.1-.53,.1ZM1.53,7.4c-.51,19.34,5.97,31.61,19.25,36.45,13.47-5.07,20.1-17.57,19.18-36.15-5.48,.5-11.97-1.58-19.25-6.2h0C15.1,5.85,8.82,7.78,1.53,7.4Z" fill="#424c57"/><path d="M24.53,31.19h-7.51v-5.46h-5.57v-7.51h5.57v-5.57h7.51v5.57h5.57v7.51h-5.57v5.46Zm-6.01-1.5h4.51v-5.46h5.57v-4.51h-5.57v-5.57h-4.51v5.57h-5.57v4.51h5.57v5.46Z" fill="#424c57"/></svg>