<svg width="70" height="70" viewBox="0 0 70 70" fill="none" xmlns="http://www.w3.org/2000/svg">
<path d="M53.323 18.593C52.072 18.6097 50.8271 18.7708 49.613 19.073C49.9248 17.8606 50.0894 16.6149 50.103 15.363C49.9995 11.2533 48.2942 7.34665 45.3508 4.47652C42.4075 1.6064 38.4591 0 34.348 0C30.237 0 26.2886 1.6064 23.3453 4.47652C20.4019 7.34665 18.6966 11.2533 18.593 15.363C18.6035 16.6145 18.7646 17.8601 19.073 19.073C17.8592 18.7695 16.6142 18.6084 15.363 18.593C11.2533 18.6966 7.34665 20.4019 4.47652 23.3453C1.6064 26.2886 0 30.237 0 34.348C0 38.4591 1.6064 42.4075 4.47652 45.3508C7.34665 48.2942 11.2533 49.9995 15.363 50.103C16.6157 50.0828 17.8614 49.9116 19.073 49.593C18.4788 51.9201 18.4243 54.3521 18.9136 56.7035C19.403 59.0548 20.4233 61.2632 21.8965 63.1599C23.3698 65.0567 25.2571 66.5917 27.4142 67.6476C29.5714 68.7035 31.9413 69.2524 34.343 69.2524C36.7448 69.2524 39.1147 68.7035 41.2718 67.6476C43.429 66.5917 45.3163 65.0567 46.7895 63.1599C48.2628 61.2632 49.2831 59.0548 49.7724 56.7035C50.2618 54.3521 50.2073 51.9201 49.613 49.593C51.7769 50.1281 54.0297 50.1971 56.2222 49.7956C58.4148 49.3941 60.4969 48.5312 62.3307 47.264C64.1646 45.9969 65.7081 44.3545 66.8592 42.4457C68.0102 40.5369 68.7424 38.4053 69.0073 36.1921C69.2721 33.9789 69.0636 31.7347 68.3955 29.6081C67.7274 27.4816 66.615 25.5214 65.132 23.8573C63.649 22.1933 61.8293 20.8634 59.7934 19.9558C57.7575 19.0483 55.552 18.5837 53.323 18.593Z" fill="currentColor"/>
</svg>
