<svg width="92" height="80" viewBox="0 0 92 80" fill="none" xmlns="http://www.w3.org/2000/svg">
<path d="M3.93277 43.449H36.5378L13.4454 63.5002C13.0502 63.8115 12.732 64.1895 12.5101 64.6112C12.2882 65.0328 12.1672 65.4893 12.1545 65.9528C12.1417 66.4164 12.2376 66.8773 12.4361 67.3077C12.6347 67.7381 12.9318 68.1288 13.3094 68.4562C13.6871 68.7836 14.1373 69.0408 14.6328 69.2121C15.1283 69.3835 15.6587 69.4654 16.1918 69.4529C16.7248 69.4405 17.2494 69.3339 17.7336 69.1396C18.2178 68.9454 18.6515 68.6675 19.0084 68.323L42.1008 48.228V76.5802C42.1008 77.4872 42.5152 78.357 43.2527 78.9984C43.9903 79.6397 44.9906 80 46.0336 80C47.0766 80 48.077 79.6397 48.8145 78.9984C49.552 78.357 49.9664 77.4872 49.9664 76.5802V48.228L73.0084 68.323C73.7557 68.9118 74.7347 69.2285 75.7429 69.2076C76.7511 69.1867 77.7116 68.8298 78.4258 68.2106C79.14 67.5914 79.5534 66.7573 79.5805 65.8807C79.6076 65.004 79.2463 64.1518 78.5714 63.5002L55.4622 43.449H88.0672C89.1103 43.449 90.1106 43.0887 90.8481 42.4474C91.5856 41.8061 92 40.9362 92 40.0292C92 39.1222 91.5856 38.2524 90.8481 37.6111C90.1106 36.9697 89.1103 36.6094 88.0672 36.6094H55.4622L78.5714 16.5583C79.3136 15.9168 79.7323 15.0452 79.7354 14.1353C79.7386 13.2254 79.3259 12.3516 78.5882 11.7062C77.8505 11.0609 76.8482 10.6968 75.8018 10.6941C74.7554 10.6913 73.7506 11.0502 73.0084 11.6916L49.9664 31.772V3.4198C49.9664 2.51281 49.552 1.64297 48.8145 1.00164C48.077 0.3603 47.0766 0 46.0336 0C44.9906 0 43.9903 0.3603 43.2527 1.00164C42.5152 1.64297 42.1008 2.51281 42.1008 3.4198V31.772L19.042 11.6916C18.6745 11.3721 18.2383 11.1186 17.7581 10.9457C17.278 10.7727 16.7634 10.6837 16.2437 10.6837C15.724 10.6837 15.2094 10.7727 14.7293 10.9457C14.2491 11.1186 13.8129 11.3721 13.4454 11.6916C12.7032 12.337 12.2863 13.2123 12.2863 14.125C12.2863 15.0376 12.7032 15.9129 13.4454 16.5583L36.5378 36.6094H3.93277C2.88974 36.6094 1.88942 36.9697 1.15188 37.6111C0.414345 38.2524 0 39.1222 0 40.0292C0 40.9362 0.414345 41.8061 1.15188 42.4474C1.88942 43.0887 2.88974 43.449 3.93277 43.449Z" fill="currentColor"/>
</svg>
