<svg width="388" height="74" viewBox="0 0 388 74" fill="none" xmlns="http://www.w3.org/2000/svg">
    <path d="M36.6905 39.9559V32.7685H7.66728V19.6419C7.66728 16.4597 9.24463 14.9235 12.3445 14.9235H40.627V7.73608H10.726C2.94895 7.73608 0 10.7948 0 18.3663V66.264H7.66728V39.9559H36.6905Z" fill="#424C57"/>
    <path d="M51.5449 55.5377C51.5449 63.3149 54.4939 66.2639 62.2572 66.2639H89.607V59.0902H63.8345C60.7895 59.0902 59.2122 57.5128 59.2122 54.3581V7.72229H51.5449V55.5377Z" fill="#424C57"/>
    <path d="M132.1 33.4131H104.064V25.5399C104.064 17.1866 108.59 13.6341 118.027 13.6341C127.463 13.6341 132.1 17.5707 132.1 25.5399V33.4131ZM139.273 27.0213C139.273 13.538 132.292 6.85815 118.233 6.85815C103.762 6.85815 96.5886 13.7164 96.5886 27.6111V46.4986C96.5886 61.4494 103.968 67.2103 120.194 67.2103C126.131 67.3258 132.036 66.3206 137.6 64.2476V57.1151C132.017 59.2417 126.069 60.2439 120.098 60.0641C108.686 60.0641 104.064 56.7173 104.064 47.1844V39.7775H138.532C139.105 35.5418 139.335 31.2666 139.218 26.9938" fill="#424C57"/>
    <path d="M148.888 7.73608L159.6 30.2584C161.479 33.907 162.261 34.6888 164.332 35.4707C162.357 36.1702 161.767 36.952 159.806 40.7926L147.118 66.264H155.183L166.485 43.0558C168.365 39.4073 168.954 38.9409 171.972 38.9409C174.989 38.9409 175.908 39.4347 177.582 43.0558L188.788 66.264H196.853L184.262 40.7926C182.204 36.76 181.614 35.8684 179.543 35.4707C181.902 34.7848 182.588 34.099 184.467 30.2584L195.083 7.73608H187.32L177.719 27.8992C176.251 31.342 174.976 32.0141 171.917 32.0141C168.858 32.0141 167.693 31.3283 166.115 27.8992L156.514 7.73608H148.888Z" fill="#424C57"/>
    <path d="M388 20.5746C388 10.0816 381.608 5.8158 369.401 5.8158C364.741 5.8237 360.112 6.56903 355.685 8.02414V15.8151C360.19 14.0025 365.012 13.1116 369.867 13.1952C377.068 13.1952 380.196 15.5682 380.196 20.8078C380.199 22.5339 379.683 24.221 378.714 25.6497C377.001 27.9751 375.082 30.1418 372.981 32.1239L360.019 45.5659C355.52 50.1609 353.792 53.0277 353.792 57.2935C353.792 63.2738 356.988 65.5233 365.19 65.5233H388.055V58.2536H365.629C362.762 58.2536 361.363 57.5129 361.363 56.1138C361.693 54.317 361.939 54.0701 364.477 51.4503L378.906 36.856C381.587 34.3406 383.979 31.5343 386.039 28.489C387.421 26.0869 388.101 23.3445 388 20.5746ZM324.399 66.36C332.354 66.36 337.927 64.5586 341.118 60.9557C344.314 57.266 345.878 51.9303 345.878 44.7978V27.4328C345.878 20.3003 344.314 14.9646 341.118 11.3572C337.923 7.74981 332.436 5.87066 324.399 5.87066C316.361 5.87066 310.792 7.66751 307.596 11.3572C304.401 15.0469 302.837 20.3003 302.837 27.4328V44.7978C302.837 51.9303 304.401 57.266 307.596 60.9557C310.792 64.6455 316.361 66.36 324.399 66.36ZM337.923 44.7978C337.923 49.8043 337.017 53.494 335.179 55.7709C333.341 58.0479 329.693 59.0492 324.44 59.0492C319.186 59.0492 315.428 57.993 313.618 55.7709C311.807 53.5489 310.875 49.8729 310.875 44.7978V27.4328C310.875 22.4309 311.789 18.8235 313.618 16.6106C315.428 14.3885 319.022 13.2501 324.44 13.2501C329.858 13.2501 333.369 14.3885 335.179 16.6106C336.99 18.8327 337.923 22.4264 337.923 27.4328V44.7978Z" fill="#424C57"/>
    <path d="M232.062 70.5297C238.7 73.6331 246.11 74.6973 253.354 73.5875C260.597 72.4777 267.349 69.2439 272.753 64.2953C278.158 59.3467 281.973 52.9059 283.716 45.788C285.459 38.6701 285.051 31.1952 282.544 24.3093C280.036 17.4235 275.543 11.4362 269.631 7.10539C263.72 2.77458 256.657 0.294901 249.336 -0.0197834C242.014 -0.334468 234.764 1.52998 228.503 5.33759C222.242 9.1452 217.251 14.7248 214.163 21.3701C210.028 30.2643 209.591 40.4352 212.947 49.6514C216.303 58.8675 223.177 66.3761 232.062 70.5297Z" fill="#96D5D2"/>
    <path d="M252.787 18.7092C249.178 23.3815 246.144 28.4701 243.748 33.8659L237.466 47.3354C237.431 47.3739 237.399 47.4152 237.37 47.4588C236.904 48.6263 236.904 49.9281 237.369 51.0959C237.834 52.2637 238.73 53.2087 239.871 53.7361C241.012 54.2636 242.311 54.3333 243.502 53.931C244.693 53.5288 245.684 52.6851 246.272 51.5737C246.272 51.5737 246.272 51.4777 246.272 51.4366L252.554 37.9671C255.145 32.6644 257.089 27.069 258.342 21.3016L252.787 18.7092Z" fill="white"/>
</svg>
